<svg width="20" height="20" xmlns="http://www.w3.org/2000/svg">
  <rect height="24" width="24" fill="none" x="0"/>
  <g>
   <path id="svg_3" d="m20.01125,3.799c-0.736,0.326 -1.527,0.547 -2.357,0.646c0.847,-0.508 1.498,-1.312 1.804,-2.27c-0.793,0.47 -1.67,0.812 -2.606,0.996c-0.746,-0.798 -1.813,-1.296 -2.993,-1.296c-2.266,0 -4.103,1.837 -4.103,4.103c0,0.322 0.036,0.635 0.106,0.935c-3.41,-0.17 -6.433,-1.804 -8.457,-4.287c-0.353,0.607 -0.556,1.312 -0.556,2.064c0,1.424 0.724,2.68 1.825,3.415c-0.673,-0.022 -1.305,-0.207 -1.86,-0.514l0,0.052c0,1.988 1.415,3.647 3.293,4.023c-0.344,0.095 -0.707,0.145 -1.08,0.145c-0.265,0 -0.522,-0.026 -0.773,-0.074c0.522,1.63 2.038,2.817 3.833,2.85c-1.404,1.1 -3.174,1.757 -5.096,1.757c-0.332,0 -0.66,-0.02 -0.98,-0.057c1.816,1.164 3.973,1.843 6.29,1.843c7.547,0 11.675,-6.252 11.675,-11.675c0,-0.178 -0.004,-0.355 -0.012,-0.53c0.802,-0.578 1.497,-1.3 2.047,-2.124l0,-0.002z"/>
 </g>
</svg>
